<mxfile host="app.diagrams.net" modified="2023-08-19T17:48:50.922Z" agent="Mozilla/5.0 (Windows NT 10.0; Win64; x64) AppleWebKit/537.36 (KHTML, like Gecko) Chrome/114.0.0.0 Safari/537.36 OPR/100.0.0.0" etag="wauhvi5pTcxRJ8VIQjWo" version="21.6.8" type="device">
  <diagram id="C5RBs43oDa-KdzZeNtuy" name="Page-1">
    <mxGraphModel dx="2225" dy="757" grid="1" gridSize="10" guides="1" tooltips="1" connect="1" arrows="1" fold="1" page="1" pageScale="1" pageWidth="827" pageHeight="1169" math="0" shadow="0">
      <root>
        <mxCell id="WIyWlLk6GJQsqaUBKTNV-0" />
        <mxCell id="WIyWlLk6GJQsqaUBKTNV-1" parent="WIyWlLk6GJQsqaUBKTNV-0" />
        <mxCell id="68AIYWXxE1RkeAf_uZzY-8" style="edgeStyle=orthogonalEdgeStyle;rounded=0;orthogonalLoop=1;jettySize=auto;html=1;entryX=0.5;entryY=0;entryDx=0;entryDy=0;" edge="1" parent="WIyWlLk6GJQsqaUBKTNV-1" source="WIyWlLk6GJQsqaUBKTNV-3" target="68AIYWXxE1RkeAf_uZzY-1">
          <mxGeometry relative="1" as="geometry" />
        </mxCell>
        <mxCell id="WIyWlLk6GJQsqaUBKTNV-3" value="Start" style="rounded=1;whiteSpace=wrap;html=1;fontSize=12;glass=0;strokeWidth=1;shadow=0;" parent="WIyWlLk6GJQsqaUBKTNV-1" vertex="1">
          <mxGeometry x="360" y="30" width="120" height="40" as="geometry" />
        </mxCell>
        <mxCell id="68AIYWXxE1RkeAf_uZzY-9" style="edgeStyle=orthogonalEdgeStyle;rounded=0;orthogonalLoop=1;jettySize=auto;html=1;entryX=0.5;entryY=0;entryDx=0;entryDy=0;" edge="1" parent="WIyWlLk6GJQsqaUBKTNV-1" source="68AIYWXxE1RkeAf_uZzY-1" target="68AIYWXxE1RkeAf_uZzY-2">
          <mxGeometry relative="1" as="geometry" />
        </mxCell>
        <mxCell id="68AIYWXxE1RkeAf_uZzY-1" value="Team" style="shape=parallelogram;perimeter=parallelogramPerimeter;whiteSpace=wrap;html=1;fixedSize=1;" vertex="1" parent="WIyWlLk6GJQsqaUBKTNV-1">
          <mxGeometry x="365" y="100" width="110" height="40" as="geometry" />
        </mxCell>
        <mxCell id="68AIYWXxE1RkeAf_uZzY-10" style="edgeStyle=orthogonalEdgeStyle;rounded=0;orthogonalLoop=1;jettySize=auto;html=1;entryX=0.5;entryY=0;entryDx=0;entryDy=0;" edge="1" parent="WIyWlLk6GJQsqaUBKTNV-1" source="68AIYWXxE1RkeAf_uZzY-2" target="68AIYWXxE1RkeAf_uZzY-3">
          <mxGeometry relative="1" as="geometry" />
        </mxCell>
        <mxCell id="68AIYWXxE1RkeAf_uZzY-2" value="Character Damage" style="shape=parallelogram;perimeter=parallelogramPerimeter;whiteSpace=wrap;html=1;fixedSize=1;" vertex="1" parent="WIyWlLk6GJQsqaUBKTNV-1">
          <mxGeometry x="355" y="170" width="130" height="40" as="geometry" />
        </mxCell>
        <mxCell id="68AIYWXxE1RkeAf_uZzY-11" style="edgeStyle=orthogonalEdgeStyle;rounded=0;orthogonalLoop=1;jettySize=auto;html=1;entryX=0.5;entryY=0;entryDx=0;entryDy=0;" edge="1" parent="WIyWlLk6GJQsqaUBKTNV-1" source="68AIYWXxE1RkeAf_uZzY-3" target="68AIYWXxE1RkeAf_uZzY-4">
          <mxGeometry relative="1" as="geometry" />
        </mxCell>
        <mxCell id="68AIYWXxE1RkeAf_uZzY-3" value="Critical Damage" style="shape=parallelogram;perimeter=parallelogramPerimeter;whiteSpace=wrap;html=1;fixedSize=1;" vertex="1" parent="WIyWlLk6GJQsqaUBKTNV-1">
          <mxGeometry x="355" y="240" width="130" height="40" as="geometry" />
        </mxCell>
        <mxCell id="68AIYWXxE1RkeAf_uZzY-15" style="edgeStyle=orthogonalEdgeStyle;rounded=0;orthogonalLoop=1;jettySize=auto;html=1;" edge="1" parent="WIyWlLk6GJQsqaUBKTNV-1" source="68AIYWXxE1RkeAf_uZzY-4" target="68AIYWXxE1RkeAf_uZzY-13">
          <mxGeometry relative="1" as="geometry" />
        </mxCell>
        <mxCell id="68AIYWXxE1RkeAf_uZzY-4" value="Critical Chance" style="shape=parallelogram;perimeter=parallelogramPerimeter;whiteSpace=wrap;html=1;fixedSize=1;" vertex="1" parent="WIyWlLk6GJQsqaUBKTNV-1">
          <mxGeometry x="355" y="310" width="130" height="40" as="geometry" />
        </mxCell>
        <mxCell id="68AIYWXxE1RkeAf_uZzY-16" style="edgeStyle=orthogonalEdgeStyle;rounded=0;orthogonalLoop=1;jettySize=auto;html=1;entryX=0.5;entryY=0;entryDx=0;entryDy=0;" edge="1" parent="WIyWlLk6GJQsqaUBKTNV-1" source="68AIYWXxE1RkeAf_uZzY-13" target="68AIYWXxE1RkeAf_uZzY-14">
          <mxGeometry relative="1" as="geometry" />
        </mxCell>
        <mxCell id="68AIYWXxE1RkeAf_uZzY-13" value="Character level" style="shape=parallelogram;perimeter=parallelogramPerimeter;whiteSpace=wrap;html=1;fixedSize=1;" vertex="1" parent="WIyWlLk6GJQsqaUBKTNV-1">
          <mxGeometry x="355" y="380" width="130" height="40" as="geometry" />
        </mxCell>
        <mxCell id="68AIYWXxE1RkeAf_uZzY-18" style="edgeStyle=orthogonalEdgeStyle;rounded=0;orthogonalLoop=1;jettySize=auto;html=1;entryX=0.5;entryY=0;entryDx=0;entryDy=0;" edge="1" parent="WIyWlLk6GJQsqaUBKTNV-1" source="68AIYWXxE1RkeAf_uZzY-14" target="68AIYWXxE1RkeAf_uZzY-17">
          <mxGeometry relative="1" as="geometry">
            <mxPoint x="430" y="520" as="targetPoint" />
          </mxGeometry>
        </mxCell>
        <mxCell id="68AIYWXxE1RkeAf_uZzY-14" value="Elemental Mastery" style="shape=parallelogram;perimeter=parallelogramPerimeter;whiteSpace=wrap;html=1;fixedSize=1;" vertex="1" parent="WIyWlLk6GJQsqaUBKTNV-1">
          <mxGeometry x="355" y="450" width="130" height="40" as="geometry" />
        </mxCell>
        <mxCell id="68AIYWXxE1RkeAf_uZzY-119" style="edgeStyle=orthogonalEdgeStyle;rounded=0;orthogonalLoop=1;jettySize=auto;html=1;entryX=0.5;entryY=0;entryDx=0;entryDy=0;" edge="1" parent="WIyWlLk6GJQsqaUBKTNV-1" source="68AIYWXxE1RkeAf_uZzY-17" target="68AIYWXxE1RkeAf_uZzY-22">
          <mxGeometry relative="1" as="geometry" />
        </mxCell>
        <mxCell id="68AIYWXxE1RkeAf_uZzY-17" value="&#xa;&lt;p data-pm-slice=&quot;1 1 [&amp;quot;tiptapChildEditor&amp;quot;,{&amp;quot;id&amp;quot;:&amp;quot;6e26baa5-7438-47f0-9756-ae6caefed362&amp;quot;,&amp;quot;shapeId&amp;quot;:&amp;quot;MbrOjxthng9&amp;quot;,&amp;quot;textId&amp;quot;:&amp;quot;identifier&amp;quot;}]&quot; dir=&quot;ltr&quot; style=&quot;text-align: center&quot;&gt;&lt;span style=&quot;color: rgb(26, 26, 26); font-size: 10pt; font-family: noto_regular&quot;&gt;Base damage = Character damage * (1 + Critical Damage + Critical Chance)&lt;/span&gt;&lt;/p&gt;&#xa;&#xa;" style="rounded=0;whiteSpace=wrap;html=1;" vertex="1" parent="WIyWlLk6GJQsqaUBKTNV-1">
          <mxGeometry x="210" y="530" width="420" height="60" as="geometry" />
        </mxCell>
        <mxCell id="68AIYWXxE1RkeAf_uZzY-25" style="edgeStyle=orthogonalEdgeStyle;rounded=0;orthogonalLoop=1;jettySize=auto;html=1;entryX=0.5;entryY=0;entryDx=0;entryDy=0;" edge="1" parent="WIyWlLk6GJQsqaUBKTNV-1" source="68AIYWXxE1RkeAf_uZzY-22" target="68AIYWXxE1RkeAf_uZzY-24">
          <mxGeometry relative="1" as="geometry" />
        </mxCell>
        <mxCell id="68AIYWXxE1RkeAf_uZzY-22" value="&lt;p data-pm-slice=&quot;1 1 [&amp;quot;tiptapChildEditor&amp;quot;,{&amp;quot;id&amp;quot;:&amp;quot;6ee7c401-3473-4edb-bf75-9d36fbbd1e00&amp;quot;,&amp;quot;shapeId&amp;quot;:&amp;quot;x10Id9P7qSQ&amp;quot;,&amp;quot;textId&amp;quot;:&amp;quot;identifier&amp;quot;}]&quot; dir=&quot;ltr&quot;&gt;Resistance Multiplier = Random(0.5, 0.2)&lt;/p&gt;" style="rounded=0;whiteSpace=wrap;html=1;" vertex="1" parent="WIyWlLk6GJQsqaUBKTNV-1">
          <mxGeometry x="240" y="620" width="360" height="60" as="geometry" />
        </mxCell>
        <mxCell id="68AIYWXxE1RkeAf_uZzY-27" style="edgeStyle=orthogonalEdgeStyle;rounded=0;orthogonalLoop=1;jettySize=auto;html=1;" edge="1" parent="WIyWlLk6GJQsqaUBKTNV-1" source="68AIYWXxE1RkeAf_uZzY-24" target="68AIYWXxE1RkeAf_uZzY-26">
          <mxGeometry relative="1" as="geometry" />
        </mxCell>
        <mxCell id="68AIYWXxE1RkeAf_uZzY-24" value="Damage Type" style="shape=parallelogram;perimeter=parallelogramPerimeter;whiteSpace=wrap;html=1;fixedSize=1;" vertex="1" parent="WIyWlLk6GJQsqaUBKTNV-1">
          <mxGeometry x="354" y="740" width="130" height="40" as="geometry" />
        </mxCell>
        <mxCell id="68AIYWXxE1RkeAf_uZzY-30" style="edgeStyle=orthogonalEdgeStyle;rounded=0;orthogonalLoop=1;jettySize=auto;html=1;entryX=1;entryY=0.5;entryDx=0;entryDy=0;" edge="1" parent="WIyWlLk6GJQsqaUBKTNV-1" source="68AIYWXxE1RkeAf_uZzY-26" target="68AIYWXxE1RkeAf_uZzY-29">
          <mxGeometry relative="1" as="geometry" />
        </mxCell>
        <mxCell id="68AIYWXxE1RkeAf_uZzY-77" style="edgeStyle=orthogonalEdgeStyle;rounded=0;orthogonalLoop=1;jettySize=auto;html=1;entryX=0.5;entryY=0;entryDx=0;entryDy=0;" edge="1" parent="WIyWlLk6GJQsqaUBKTNV-1" source="68AIYWXxE1RkeAf_uZzY-26" target="68AIYWXxE1RkeAf_uZzY-75">
          <mxGeometry relative="1" as="geometry" />
        </mxCell>
        <mxCell id="68AIYWXxE1RkeAf_uZzY-79" style="edgeStyle=orthogonalEdgeStyle;rounded=0;orthogonalLoop=1;jettySize=auto;html=1;" edge="1" parent="WIyWlLk6GJQsqaUBKTNV-1" source="68AIYWXxE1RkeAf_uZzY-26" target="68AIYWXxE1RkeAf_uZzY-76">
          <mxGeometry relative="1" as="geometry" />
        </mxCell>
        <mxCell id="68AIYWXxE1RkeAf_uZzY-26" value="Damage Type" style="rhombus;whiteSpace=wrap;html=1;" vertex="1" parent="WIyWlLk6GJQsqaUBKTNV-1">
          <mxGeometry x="366.5" y="810" width="105" height="80" as="geometry" />
        </mxCell>
        <mxCell id="68AIYWXxE1RkeAf_uZzY-121" style="edgeStyle=orthogonalEdgeStyle;rounded=0;orthogonalLoop=1;jettySize=auto;html=1;entryX=1;entryY=0.5;entryDx=0;entryDy=0;" edge="1" parent="WIyWlLk6GJQsqaUBKTNV-1" source="68AIYWXxE1RkeAf_uZzY-29" target="68AIYWXxE1RkeAf_uZzY-120">
          <mxGeometry relative="1" as="geometry" />
        </mxCell>
        <mxCell id="68AIYWXxE1RkeAf_uZzY-29" value="Transformative" style="text;html=1;strokeColor=none;fillColor=none;align=center;verticalAlign=middle;whiteSpace=wrap;rounded=0;" vertex="1" parent="WIyWlLk6GJQsqaUBKTNV-1">
          <mxGeometry x="249" y="835" width="90" height="30" as="geometry" />
        </mxCell>
        <mxCell id="68AIYWXxE1RkeAf_uZzY-34" style="edgeStyle=orthogonalEdgeStyle;rounded=0;orthogonalLoop=1;jettySize=auto;html=1;entryX=0.5;entryY=0;entryDx=0;entryDy=0;" edge="1" parent="WIyWlLk6GJQsqaUBKTNV-1" source="68AIYWXxE1RkeAf_uZzY-31" target="68AIYWXxE1RkeAf_uZzY-33">
          <mxGeometry relative="1" as="geometry" />
        </mxCell>
        <mxCell id="68AIYWXxE1RkeAf_uZzY-31" value="Transformative Multiplier Type" style="shape=parallelogram;perimeter=parallelogramPerimeter;whiteSpace=wrap;html=1;fixedSize=1;" vertex="1" parent="WIyWlLk6GJQsqaUBKTNV-1">
          <mxGeometry x="-416" y="825" width="120" height="50" as="geometry" />
        </mxCell>
        <mxCell id="68AIYWXxE1RkeAf_uZzY-57" style="edgeStyle=orthogonalEdgeStyle;rounded=0;orthogonalLoop=1;jettySize=auto;html=1;entryX=0.5;entryY=0;entryDx=0;entryDy=0;" edge="1" parent="WIyWlLk6GJQsqaUBKTNV-1" source="68AIYWXxE1RkeAf_uZzY-33" target="68AIYWXxE1RkeAf_uZzY-44">
          <mxGeometry relative="1" as="geometry" />
        </mxCell>
        <mxCell id="68AIYWXxE1RkeAf_uZzY-58" style="edgeStyle=orthogonalEdgeStyle;rounded=0;orthogonalLoop=1;jettySize=auto;html=1;entryX=0.5;entryY=0;entryDx=0;entryDy=0;" edge="1" parent="WIyWlLk6GJQsqaUBKTNV-1" source="68AIYWXxE1RkeAf_uZzY-33" target="68AIYWXxE1RkeAf_uZzY-42">
          <mxGeometry relative="1" as="geometry" />
        </mxCell>
        <mxCell id="68AIYWXxE1RkeAf_uZzY-59" style="edgeStyle=orthogonalEdgeStyle;rounded=0;orthogonalLoop=1;jettySize=auto;html=1;entryX=0.5;entryY=0;entryDx=0;entryDy=0;" edge="1" parent="WIyWlLk6GJQsqaUBKTNV-1" source="68AIYWXxE1RkeAf_uZzY-33" target="68AIYWXxE1RkeAf_uZzY-45">
          <mxGeometry relative="1" as="geometry" />
        </mxCell>
        <mxCell id="68AIYWXxE1RkeAf_uZzY-60" style="edgeStyle=orthogonalEdgeStyle;rounded=0;orthogonalLoop=1;jettySize=auto;html=1;entryX=0.5;entryY=0;entryDx=0;entryDy=0;" edge="1" parent="WIyWlLk6GJQsqaUBKTNV-1" source="68AIYWXxE1RkeAf_uZzY-33" target="68AIYWXxE1RkeAf_uZzY-46">
          <mxGeometry relative="1" as="geometry" />
        </mxCell>
        <mxCell id="68AIYWXxE1RkeAf_uZzY-61" style="edgeStyle=orthogonalEdgeStyle;rounded=0;orthogonalLoop=1;jettySize=auto;html=1;entryX=0.5;entryY=0;entryDx=0;entryDy=0;" edge="1" parent="WIyWlLk6GJQsqaUBKTNV-1" source="68AIYWXxE1RkeAf_uZzY-33" target="68AIYWXxE1RkeAf_uZzY-47">
          <mxGeometry relative="1" as="geometry" />
        </mxCell>
        <mxCell id="68AIYWXxE1RkeAf_uZzY-62" style="edgeStyle=orthogonalEdgeStyle;rounded=0;orthogonalLoop=1;jettySize=auto;html=1;entryX=0.5;entryY=0;entryDx=0;entryDy=0;" edge="1" parent="WIyWlLk6GJQsqaUBKTNV-1" source="68AIYWXxE1RkeAf_uZzY-33" target="68AIYWXxE1RkeAf_uZzY-48">
          <mxGeometry relative="1" as="geometry" />
        </mxCell>
        <mxCell id="68AIYWXxE1RkeAf_uZzY-63" style="edgeStyle=orthogonalEdgeStyle;rounded=0;orthogonalLoop=1;jettySize=auto;html=1;entryX=0.5;entryY=0;entryDx=0;entryDy=0;" edge="1" parent="WIyWlLk6GJQsqaUBKTNV-1" source="68AIYWXxE1RkeAf_uZzY-33" target="68AIYWXxE1RkeAf_uZzY-49">
          <mxGeometry relative="1" as="geometry">
            <mxPoint x="14" y="1110" as="targetPoint" />
          </mxGeometry>
        </mxCell>
        <mxCell id="68AIYWXxE1RkeAf_uZzY-33" value="Transformative multiplier type" style="rhombus;whiteSpace=wrap;html=1;" vertex="1" parent="WIyWlLk6GJQsqaUBKTNV-1">
          <mxGeometry x="-421" y="980" width="130" height="80" as="geometry" />
        </mxCell>
        <mxCell id="68AIYWXxE1RkeAf_uZzY-69" style="edgeStyle=orthogonalEdgeStyle;rounded=0;orthogonalLoop=1;jettySize=auto;html=1;entryX=0;entryY=0.5;entryDx=0;entryDy=0;exitX=0.5;exitY=1;exitDx=0;exitDy=0;" edge="1" parent="WIyWlLk6GJQsqaUBKTNV-1" source="68AIYWXxE1RkeAf_uZzY-161" target="68AIYWXxE1RkeAf_uZzY-171">
          <mxGeometry relative="1" as="geometry">
            <mxPoint x="-641" y="1290" as="sourcePoint" />
            <mxPoint x="-508.5" y="1400" as="targetPoint" />
          </mxGeometry>
        </mxCell>
        <mxCell id="68AIYWXxE1RkeAf_uZzY-68" style="edgeStyle=orthogonalEdgeStyle;rounded=0;orthogonalLoop=1;jettySize=auto;html=1;entryX=0;entryY=0.5;entryDx=0;entryDy=0;exitX=0.5;exitY=1;exitDx=0;exitDy=0;" edge="1" parent="WIyWlLk6GJQsqaUBKTNV-1" source="68AIYWXxE1RkeAf_uZzY-162" target="68AIYWXxE1RkeAf_uZzY-171">
          <mxGeometry relative="1" as="geometry">
            <mxPoint x="-541" y="1290" as="sourcePoint" />
            <mxPoint x="-508.5" y="1400" as="targetPoint" />
          </mxGeometry>
        </mxCell>
        <mxCell id="68AIYWXxE1RkeAf_uZzY-67" style="edgeStyle=orthogonalEdgeStyle;rounded=0;orthogonalLoop=1;jettySize=auto;html=1;entryX=0.5;entryY=0;entryDx=0;entryDy=0;exitX=0.5;exitY=1;exitDx=0;exitDy=0;" edge="1" parent="WIyWlLk6GJQsqaUBKTNV-1" source="68AIYWXxE1RkeAf_uZzY-163" target="68AIYWXxE1RkeAf_uZzY-171">
          <mxGeometry relative="1" as="geometry">
            <mxPoint x="-446" y="1290" as="sourcePoint" />
            <mxPoint x="-356" y="1400" as="targetPoint" />
          </mxGeometry>
        </mxCell>
        <mxCell id="68AIYWXxE1RkeAf_uZzY-66" style="edgeStyle=orthogonalEdgeStyle;rounded=0;orthogonalLoop=1;jettySize=auto;html=1;entryX=0.5;entryY=0;entryDx=0;entryDy=0;exitX=0.5;exitY=1;exitDx=0;exitDy=0;" edge="1" parent="WIyWlLk6GJQsqaUBKTNV-1" source="68AIYWXxE1RkeAf_uZzY-165" target="68AIYWXxE1RkeAf_uZzY-171">
          <mxGeometry relative="1" as="geometry">
            <mxPoint x="-356" y="1290" as="sourcePoint" />
            <mxPoint x="-356" y="1400" as="targetPoint" />
          </mxGeometry>
        </mxCell>
        <mxCell id="68AIYWXxE1RkeAf_uZzY-70" style="edgeStyle=orthogonalEdgeStyle;rounded=0;orthogonalLoop=1;jettySize=auto;html=1;entryX=0.5;entryY=0;entryDx=0;entryDy=0;exitX=0.5;exitY=1;exitDx=0;exitDy=0;" edge="1" parent="WIyWlLk6GJQsqaUBKTNV-1" source="68AIYWXxE1RkeAf_uZzY-166" target="68AIYWXxE1RkeAf_uZzY-171">
          <mxGeometry relative="1" as="geometry">
            <mxPoint x="-261" y="1290" as="sourcePoint" />
            <mxPoint x="-356" y="1400" as="targetPoint" />
          </mxGeometry>
        </mxCell>
        <mxCell id="68AIYWXxE1RkeAf_uZzY-71" style="edgeStyle=orthogonalEdgeStyle;rounded=0;orthogonalLoop=1;jettySize=auto;html=1;entryX=1;entryY=0.5;entryDx=0;entryDy=0;exitX=0.5;exitY=1;exitDx=0;exitDy=0;" edge="1" parent="WIyWlLk6GJQsqaUBKTNV-1" source="68AIYWXxE1RkeAf_uZzY-167" target="68AIYWXxE1RkeAf_uZzY-171">
          <mxGeometry relative="1" as="geometry">
            <mxPoint x="-141" y="1290" as="sourcePoint" />
            <mxPoint x="-203.49999999999977" y="1400" as="targetPoint" />
          </mxGeometry>
        </mxCell>
        <mxCell id="68AIYWXxE1RkeAf_uZzY-73" style="edgeStyle=orthogonalEdgeStyle;rounded=0;orthogonalLoop=1;jettySize=auto;html=1;exitX=0.5;exitY=1;exitDx=0;exitDy=0;entryX=1;entryY=0.5;entryDx=0;entryDy=0;" edge="1" parent="WIyWlLk6GJQsqaUBKTNV-1" source="68AIYWXxE1RkeAf_uZzY-168" target="68AIYWXxE1RkeAf_uZzY-171">
          <mxGeometry relative="1" as="geometry">
            <mxPoint x="14" y="1290" as="sourcePoint" />
            <mxPoint x="-203" y="1400" as="targetPoint" />
            <Array as="points">
              <mxPoint x="55" y="1420" />
            </Array>
          </mxGeometry>
        </mxCell>
        <mxCell id="68AIYWXxE1RkeAf_uZzY-50" style="edgeStyle=orthogonalEdgeStyle;rounded=0;orthogonalLoop=1;jettySize=auto;html=1;entryX=0.5;entryY=0;entryDx=0;entryDy=0;" edge="1" parent="WIyWlLk6GJQsqaUBKTNV-1" source="68AIYWXxE1RkeAf_uZzY-42" target="68AIYWXxE1RkeAf_uZzY-161">
          <mxGeometry relative="1" as="geometry">
            <mxPoint x="-641" y="1239.9999999999998" as="targetPoint" />
          </mxGeometry>
        </mxCell>
        <mxCell id="68AIYWXxE1RkeAf_uZzY-42" value="Burn" style="text;html=1;strokeColor=none;fillColor=none;align=center;verticalAlign=middle;whiteSpace=wrap;rounded=0;" vertex="1" parent="WIyWlLk6GJQsqaUBKTNV-1">
          <mxGeometry x="-780" y="1110" width="60" height="30" as="geometry" />
        </mxCell>
        <mxCell id="68AIYWXxE1RkeAf_uZzY-51" style="edgeStyle=orthogonalEdgeStyle;rounded=0;orthogonalLoop=1;jettySize=auto;html=1;entryX=0.5;entryY=0;entryDx=0;entryDy=0;" edge="1" parent="WIyWlLk6GJQsqaUBKTNV-1" source="68AIYWXxE1RkeAf_uZzY-44" target="68AIYWXxE1RkeAf_uZzY-162">
          <mxGeometry relative="1" as="geometry">
            <mxPoint x="-541" y="1239.9999999999998" as="targetPoint" />
          </mxGeometry>
        </mxCell>
        <mxCell id="68AIYWXxE1RkeAf_uZzY-44" value="Superconductor" style="text;html=1;strokeColor=none;fillColor=none;align=center;verticalAlign=middle;whiteSpace=wrap;rounded=0;" vertex="1" parent="WIyWlLk6GJQsqaUBKTNV-1">
          <mxGeometry x="-666.5" y="1110" width="93" height="30" as="geometry" />
        </mxCell>
        <mxCell id="68AIYWXxE1RkeAf_uZzY-52" style="edgeStyle=orthogonalEdgeStyle;rounded=0;orthogonalLoop=1;jettySize=auto;html=1;entryX=0.5;entryY=0;entryDx=0;entryDy=0;" edge="1" parent="WIyWlLk6GJQsqaUBKTNV-1" source="68AIYWXxE1RkeAf_uZzY-45" target="68AIYWXxE1RkeAf_uZzY-163">
          <mxGeometry relative="1" as="geometry">
            <mxPoint x="-446" y="1239.9999999999998" as="targetPoint" />
          </mxGeometry>
        </mxCell>
        <mxCell id="68AIYWXxE1RkeAf_uZzY-45" value="Whirlwind" style="text;html=1;strokeColor=none;fillColor=none;align=center;verticalAlign=middle;whiteSpace=wrap;rounded=0;" vertex="1" parent="WIyWlLk6GJQsqaUBKTNV-1">
          <mxGeometry x="-525" y="1110" width="70" height="30" as="geometry" />
        </mxCell>
        <mxCell id="68AIYWXxE1RkeAf_uZzY-53" style="edgeStyle=orthogonalEdgeStyle;rounded=0;orthogonalLoop=1;jettySize=auto;html=1;entryX=0.5;entryY=0;entryDx=0;entryDy=0;" edge="1" parent="WIyWlLk6GJQsqaUBKTNV-1" source="68AIYWXxE1RkeAf_uZzY-46" target="68AIYWXxE1RkeAf_uZzY-165">
          <mxGeometry relative="1" as="geometry">
            <mxPoint x="-360" y="1240" as="targetPoint" />
          </mxGeometry>
        </mxCell>
        <mxCell id="68AIYWXxE1RkeAf_uZzY-46" value="Charged" style="text;html=1;strokeColor=none;fillColor=none;align=center;verticalAlign=middle;whiteSpace=wrap;rounded=0;" vertex="1" parent="WIyWlLk6GJQsqaUBKTNV-1">
          <mxGeometry x="-386" y="1110" width="60" height="30" as="geometry" />
        </mxCell>
        <mxCell id="68AIYWXxE1RkeAf_uZzY-54" style="edgeStyle=orthogonalEdgeStyle;rounded=0;orthogonalLoop=1;jettySize=auto;html=1;entryX=0.5;entryY=0;entryDx=0;entryDy=0;" edge="1" parent="WIyWlLk6GJQsqaUBKTNV-1" source="68AIYWXxE1RkeAf_uZzY-47" target="68AIYWXxE1RkeAf_uZzY-166">
          <mxGeometry relative="1" as="geometry">
            <mxPoint x="-261" y="1239.9999999999998" as="targetPoint" />
          </mxGeometry>
        </mxCell>
        <mxCell id="68AIYWXxE1RkeAf_uZzY-47" value="Crystal" style="text;html=1;strokeColor=none;fillColor=none;align=center;verticalAlign=middle;whiteSpace=wrap;rounded=0;" vertex="1" parent="WIyWlLk6GJQsqaUBKTNV-1">
          <mxGeometry x="-250" y="1110" width="60" height="30" as="geometry" />
        </mxCell>
        <mxCell id="68AIYWXxE1RkeAf_uZzY-55" style="edgeStyle=orthogonalEdgeStyle;rounded=0;orthogonalLoop=1;jettySize=auto;html=1;entryX=0.5;entryY=0;entryDx=0;entryDy=0;" edge="1" parent="WIyWlLk6GJQsqaUBKTNV-1" source="68AIYWXxE1RkeAf_uZzY-48" target="68AIYWXxE1RkeAf_uZzY-167">
          <mxGeometry relative="1" as="geometry">
            <mxPoint x="-141" y="1239.9999999999998" as="targetPoint" />
          </mxGeometry>
        </mxCell>
        <mxCell id="68AIYWXxE1RkeAf_uZzY-48" value="Overcharged/Flowering" style="text;html=1;strokeColor=none;fillColor=none;align=center;verticalAlign=middle;whiteSpace=wrap;rounded=0;" vertex="1" parent="WIyWlLk6GJQsqaUBKTNV-1">
          <mxGeometry x="-160" y="1120" width="140" height="30" as="geometry" />
        </mxCell>
        <mxCell id="68AIYWXxE1RkeAf_uZzY-56" style="edgeStyle=orthogonalEdgeStyle;rounded=0;orthogonalLoop=1;jettySize=auto;html=1;entryX=0.5;entryY=0;entryDx=0;entryDy=0;exitX=0.5;exitY=1;exitDx=0;exitDy=0;" edge="1" parent="WIyWlLk6GJQsqaUBKTNV-1" source="68AIYWXxE1RkeAf_uZzY-49" target="68AIYWXxE1RkeAf_uZzY-168">
          <mxGeometry relative="1" as="geometry">
            <mxPoint x="14" y="1140" as="sourcePoint" />
            <mxPoint x="14" y="1239.9999999999998" as="targetPoint" />
          </mxGeometry>
        </mxCell>
        <mxCell id="68AIYWXxE1RkeAf_uZzY-49" value="Overflowering/Superburn" style="text;html=1;strokeColor=none;fillColor=none;align=center;verticalAlign=middle;whiteSpace=wrap;rounded=0;" vertex="1" parent="WIyWlLk6GJQsqaUBKTNV-1">
          <mxGeometry x="-20" y="1120" width="150" height="30" as="geometry" />
        </mxCell>
        <mxCell id="68AIYWXxE1RkeAf_uZzY-100" style="edgeStyle=orthogonalEdgeStyle;rounded=0;orthogonalLoop=1;jettySize=auto;html=1;" edge="1" parent="WIyWlLk6GJQsqaUBKTNV-1" source="68AIYWXxE1RkeAf_uZzY-74" target="68AIYWXxE1RkeAf_uZzY-99">
          <mxGeometry relative="1" as="geometry" />
        </mxCell>
        <mxCell id="68AIYWXxE1RkeAf_uZzY-74" value="Amplification Multiplier Type" style="shape=parallelogram;perimeter=parallelogramPerimeter;whiteSpace=wrap;html=1;fixedSize=1;" vertex="1" parent="WIyWlLk6GJQsqaUBKTNV-1">
          <mxGeometry x="360" y="1100" width="120" height="50" as="geometry" />
        </mxCell>
        <mxCell id="68AIYWXxE1RkeAf_uZzY-125" style="edgeStyle=orthogonalEdgeStyle;rounded=0;orthogonalLoop=1;jettySize=auto;html=1;" edge="1" parent="WIyWlLk6GJQsqaUBKTNV-1" source="68AIYWXxE1RkeAf_uZzY-75" target="68AIYWXxE1RkeAf_uZzY-123">
          <mxGeometry relative="1" as="geometry" />
        </mxCell>
        <mxCell id="68AIYWXxE1RkeAf_uZzY-75" value="Amplification" style="text;html=1;strokeColor=none;fillColor=none;align=center;verticalAlign=middle;whiteSpace=wrap;rounded=0;" vertex="1" parent="WIyWlLk6GJQsqaUBKTNV-1">
          <mxGeometry x="374" y="930" width="90" height="30" as="geometry" />
        </mxCell>
        <mxCell id="68AIYWXxE1RkeAf_uZzY-137" style="edgeStyle=orthogonalEdgeStyle;rounded=0;orthogonalLoop=1;jettySize=auto;html=1;" edge="1" parent="WIyWlLk6GJQsqaUBKTNV-1" source="68AIYWXxE1RkeAf_uZzY-76" target="68AIYWXxE1RkeAf_uZzY-136">
          <mxGeometry relative="1" as="geometry" />
        </mxCell>
        <mxCell id="68AIYWXxE1RkeAf_uZzY-76" value="Additive" style="text;html=1;strokeColor=none;fillColor=none;align=center;verticalAlign=middle;whiteSpace=wrap;rounded=0;" vertex="1" parent="WIyWlLk6GJQsqaUBKTNV-1">
          <mxGeometry x="519" y="835" width="90" height="30" as="geometry" />
        </mxCell>
        <mxCell id="68AIYWXxE1RkeAf_uZzY-89" style="edgeStyle=orthogonalEdgeStyle;rounded=0;orthogonalLoop=1;jettySize=auto;html=1;entryX=0.5;entryY=0;entryDx=0;entryDy=0;" edge="1" parent="WIyWlLk6GJQsqaUBKTNV-1" source="68AIYWXxE1RkeAf_uZzY-84" target="68AIYWXxE1RkeAf_uZzY-175">
          <mxGeometry relative="1" as="geometry">
            <mxPoint x="350" y="1380" as="targetPoint" />
          </mxGeometry>
        </mxCell>
        <mxCell id="68AIYWXxE1RkeAf_uZzY-84" value="Vaporization" style="text;html=1;strokeColor=none;fillColor=none;align=center;verticalAlign=middle;whiteSpace=wrap;rounded=0;" vertex="1" parent="WIyWlLk6GJQsqaUBKTNV-1">
          <mxGeometry x="312.5" y="1300" width="75" height="30" as="geometry" />
        </mxCell>
        <mxCell id="68AIYWXxE1RkeAf_uZzY-107" style="edgeStyle=orthogonalEdgeStyle;rounded=0;orthogonalLoop=1;jettySize=auto;html=1;entryX=0.5;entryY=0;entryDx=0;entryDy=0;" edge="1" parent="WIyWlLk6GJQsqaUBKTNV-1" source="68AIYWXxE1RkeAf_uZzY-86" target="68AIYWXxE1RkeAf_uZzY-176">
          <mxGeometry relative="1" as="geometry">
            <mxPoint x="482.5" y="1380" as="targetPoint" />
          </mxGeometry>
        </mxCell>
        <mxCell id="68AIYWXxE1RkeAf_uZzY-86" value="Melting" style="text;html=1;strokeColor=none;fillColor=none;align=center;verticalAlign=middle;whiteSpace=wrap;rounded=0;" vertex="1" parent="WIyWlLk6GJQsqaUBKTNV-1">
          <mxGeometry x="445" y="1300" width="75" height="30" as="geometry" />
        </mxCell>
        <mxCell id="68AIYWXxE1RkeAf_uZzY-215" style="edgeStyle=orthogonalEdgeStyle;rounded=0;orthogonalLoop=1;jettySize=auto;html=1;" edge="1" parent="WIyWlLk6GJQsqaUBKTNV-1" source="68AIYWXxE1RkeAf_uZzY-91" target="68AIYWXxE1RkeAf_uZzY-214">
          <mxGeometry relative="1" as="geometry" />
        </mxCell>
        <mxCell id="68AIYWXxE1RkeAf_uZzY-91" value="Amplification damage = Base damage * Amplification Multiplier&lt;br&gt;&lt;p data-pm-slice=&quot;1 1 [&amp;quot;tiptapChildEditor&amp;quot;,{&amp;quot;id&amp;quot;:&amp;quot;2c45f719-b87e-4908-99bd-f6c6f1ec4c66&amp;quot;,&amp;quot;shapeId&amp;quot;:&amp;quot;fdUhFcARWMb&amp;quot;,&amp;quot;textId&amp;quot;:&amp;quot;identifier&amp;quot;}]&quot; dir=&quot;ltr&quot; style=&quot;text-align: center&quot;&gt;&lt;/p&gt;" style="rounded=0;whiteSpace=wrap;html=1;" vertex="1" parent="WIyWlLk6GJQsqaUBKTNV-1">
          <mxGeometry x="242" y="1694" width="350" height="60" as="geometry" />
        </mxCell>
        <mxCell id="68AIYWXxE1RkeAf_uZzY-109" style="edgeStyle=orthogonalEdgeStyle;rounded=0;orthogonalLoop=1;jettySize=auto;html=1;entryX=0.5;entryY=0;entryDx=0;entryDy=0;" edge="1" parent="WIyWlLk6GJQsqaUBKTNV-1" source="68AIYWXxE1RkeAf_uZzY-94" target="68AIYWXxE1RkeAf_uZzY-108">
          <mxGeometry relative="1" as="geometry" />
        </mxCell>
        <mxCell id="68AIYWXxE1RkeAf_uZzY-94" value="Additive Multiplier Type" style="shape=parallelogram;perimeter=parallelogramPerimeter;whiteSpace=wrap;html=1;fixedSize=1;" vertex="1" parent="WIyWlLk6GJQsqaUBKTNV-1">
          <mxGeometry x="1084" y="825" width="120" height="50" as="geometry" />
        </mxCell>
        <mxCell id="68AIYWXxE1RkeAf_uZzY-104" style="edgeStyle=orthogonalEdgeStyle;rounded=0;orthogonalLoop=1;jettySize=auto;html=1;" edge="1" parent="WIyWlLk6GJQsqaUBKTNV-1" source="68AIYWXxE1RkeAf_uZzY-99" target="68AIYWXxE1RkeAf_uZzY-84">
          <mxGeometry relative="1" as="geometry" />
        </mxCell>
        <mxCell id="68AIYWXxE1RkeAf_uZzY-105" style="edgeStyle=orthogonalEdgeStyle;rounded=0;orthogonalLoop=1;jettySize=auto;html=1;entryX=0.5;entryY=0;entryDx=0;entryDy=0;" edge="1" parent="WIyWlLk6GJQsqaUBKTNV-1" source="68AIYWXxE1RkeAf_uZzY-99" target="68AIYWXxE1RkeAf_uZzY-86">
          <mxGeometry relative="1" as="geometry" />
        </mxCell>
        <mxCell id="68AIYWXxE1RkeAf_uZzY-99" value="Amplification Multiplier Type" style="rhombus;whiteSpace=wrap;html=1;" vertex="1" parent="WIyWlLk6GJQsqaUBKTNV-1">
          <mxGeometry x="327.5" y="1180" width="185" height="80" as="geometry" />
        </mxCell>
        <mxCell id="68AIYWXxE1RkeAf_uZzY-113" style="edgeStyle=orthogonalEdgeStyle;rounded=0;orthogonalLoop=1;jettySize=auto;html=1;entryX=0.5;entryY=0;entryDx=0;entryDy=0;" edge="1" parent="WIyWlLk6GJQsqaUBKTNV-1" source="68AIYWXxE1RkeAf_uZzY-108" target="68AIYWXxE1RkeAf_uZzY-110">
          <mxGeometry relative="1" as="geometry">
            <mxPoint x="1056" y="1110" as="targetPoint" />
          </mxGeometry>
        </mxCell>
        <mxCell id="68AIYWXxE1RkeAf_uZzY-114" style="edgeStyle=orthogonalEdgeStyle;rounded=0;orthogonalLoop=1;jettySize=auto;html=1;entryX=0.5;entryY=0;entryDx=0;entryDy=0;" edge="1" parent="WIyWlLk6GJQsqaUBKTNV-1" source="68AIYWXxE1RkeAf_uZzY-108" target="68AIYWXxE1RkeAf_uZzY-111">
          <mxGeometry relative="1" as="geometry" />
        </mxCell>
        <mxCell id="68AIYWXxE1RkeAf_uZzY-108" value="Additive Multiplier Type" style="rhombus;whiteSpace=wrap;html=1;" vertex="1" parent="WIyWlLk6GJQsqaUBKTNV-1">
          <mxGeometry x="1064" y="970" width="160" height="80" as="geometry" />
        </mxCell>
        <mxCell id="68AIYWXxE1RkeAf_uZzY-117" style="edgeStyle=orthogonalEdgeStyle;rounded=0;orthogonalLoop=1;jettySize=auto;html=1;entryX=0.5;entryY=0;entryDx=0;entryDy=0;exitX=0.5;exitY=1;exitDx=0;exitDy=0;" edge="1" parent="WIyWlLk6GJQsqaUBKTNV-1" source="68AIYWXxE1RkeAf_uZzY-110" target="68AIYWXxE1RkeAf_uZzY-184">
          <mxGeometry relative="1" as="geometry">
            <mxPoint x="1056" y="1140" as="sourcePoint" />
            <mxPoint x="1056.0000000000005" y="1200" as="targetPoint" />
          </mxGeometry>
        </mxCell>
        <mxCell id="68AIYWXxE1RkeAf_uZzY-110" value="Intensification" style="text;html=1;strokeColor=none;fillColor=none;align=center;verticalAlign=middle;whiteSpace=wrap;rounded=0;" vertex="1" parent="WIyWlLk6GJQsqaUBKTNV-1">
          <mxGeometry x="1001" y="1110" width="110" height="30" as="geometry" />
        </mxCell>
        <mxCell id="68AIYWXxE1RkeAf_uZzY-118" style="edgeStyle=orthogonalEdgeStyle;rounded=0;orthogonalLoop=1;jettySize=auto;html=1;entryX=0.5;entryY=0;entryDx=0;entryDy=0;" edge="1" parent="WIyWlLk6GJQsqaUBKTNV-1" source="68AIYWXxE1RkeAf_uZzY-111" target="68AIYWXxE1RkeAf_uZzY-186">
          <mxGeometry relative="1" as="geometry">
            <mxPoint x="1235" y="1200" as="targetPoint" />
          </mxGeometry>
        </mxCell>
        <mxCell id="68AIYWXxE1RkeAf_uZzY-111" value="Spread" style="text;html=1;strokeColor=none;fillColor=none;align=center;verticalAlign=middle;whiteSpace=wrap;rounded=0;" vertex="1" parent="WIyWlLk6GJQsqaUBKTNV-1">
          <mxGeometry x="1180" y="1110" width="110" height="30" as="geometry" />
        </mxCell>
        <mxCell id="68AIYWXxE1RkeAf_uZzY-122" style="edgeStyle=orthogonalEdgeStyle;rounded=0;orthogonalLoop=1;jettySize=auto;html=1;entryX=1;entryY=0.5;entryDx=0;entryDy=0;" edge="1" parent="WIyWlLk6GJQsqaUBKTNV-1" source="68AIYWXxE1RkeAf_uZzY-120" target="68AIYWXxE1RkeAf_uZzY-31">
          <mxGeometry relative="1" as="geometry" />
        </mxCell>
        <mxCell id="68AIYWXxE1RkeAf_uZzY-120" value="%BonoME = 16 * [Elemental Mastery/(Elemental Master + 2000)]" style="rounded=0;whiteSpace=wrap;html=1;" vertex="1" parent="WIyWlLk6GJQsqaUBKTNV-1">
          <mxGeometry x="-200" y="820" width="371" height="60" as="geometry" />
        </mxCell>
        <mxCell id="68AIYWXxE1RkeAf_uZzY-126" style="edgeStyle=orthogonalEdgeStyle;rounded=0;orthogonalLoop=1;jettySize=auto;html=1;entryX=0.5;entryY=0;entryDx=0;entryDy=0;" edge="1" parent="WIyWlLk6GJQsqaUBKTNV-1" source="68AIYWXxE1RkeAf_uZzY-123" target="68AIYWXxE1RkeAf_uZzY-74">
          <mxGeometry relative="1" as="geometry" />
        </mxCell>
        <mxCell id="68AIYWXxE1RkeAf_uZzY-123" value="%BonoME = 2.78 * [Elemental Mastery/(Elemental Mastery + 1400)]" style="rounded=0;whiteSpace=wrap;html=1;" vertex="1" parent="WIyWlLk6GJQsqaUBKTNV-1">
          <mxGeometry x="234.5" y="1000" width="371" height="60" as="geometry" />
        </mxCell>
        <mxCell id="68AIYWXxE1RkeAf_uZzY-134" style="edgeStyle=orthogonalEdgeStyle;rounded=0;orthogonalLoop=1;jettySize=auto;html=1;" edge="1" parent="WIyWlLk6GJQsqaUBKTNV-1" source="68AIYWXxE1RkeAf_uZzY-132" target="68AIYWXxE1RkeAf_uZzY-91">
          <mxGeometry relative="1" as="geometry" />
        </mxCell>
        <mxCell id="68AIYWXxE1RkeAf_uZzY-132" value="Amplification Multiplier = Amplification Reaction Multiplier * (1 + %BonoME)" style="rounded=0;whiteSpace=wrap;html=1;" vertex="1" parent="WIyWlLk6GJQsqaUBKTNV-1">
          <mxGeometry x="209" y="1590" width="416" height="60" as="geometry" />
        </mxCell>
        <mxCell id="68AIYWXxE1RkeAf_uZzY-138" style="edgeStyle=orthogonalEdgeStyle;rounded=0;orthogonalLoop=1;jettySize=auto;html=1;entryX=0;entryY=0.5;entryDx=0;entryDy=0;" edge="1" parent="WIyWlLk6GJQsqaUBKTNV-1" source="68AIYWXxE1RkeAf_uZzY-136" target="68AIYWXxE1RkeAf_uZzY-94">
          <mxGeometry relative="1" as="geometry" />
        </mxCell>
        <mxCell id="68AIYWXxE1RkeAf_uZzY-136" value="%BonoME = (5 * Elemental Mastery)/(Elemental Mastery + 1200)" style="rounded=0;whiteSpace=wrap;html=1;" vertex="1" parent="WIyWlLk6GJQsqaUBKTNV-1">
          <mxGeometry x="660" y="820" width="371" height="60" as="geometry" />
        </mxCell>
        <mxCell id="68AIYWXxE1RkeAf_uZzY-139" style="edgeStyle=orthogonalEdgeStyle;rounded=0;orthogonalLoop=1;jettySize=auto;html=1;exitX=0.5;exitY=1;exitDx=0;exitDy=0;" edge="1" parent="WIyWlLk6GJQsqaUBKTNV-1" source="68AIYWXxE1RkeAf_uZzY-111" target="68AIYWXxE1RkeAf_uZzY-111">
          <mxGeometry relative="1" as="geometry" />
        </mxCell>
        <mxCell id="68AIYWXxE1RkeAf_uZzY-151" style="edgeStyle=orthogonalEdgeStyle;rounded=0;orthogonalLoop=1;jettySize=auto;html=1;entryX=0;entryY=0.5;entryDx=0;entryDy=0;" edge="1" parent="WIyWlLk6GJQsqaUBKTNV-1" source="68AIYWXxE1RkeAf_uZzY-147" target="68AIYWXxE1RkeAf_uZzY-149">
          <mxGeometry relative="1" as="geometry" />
        </mxCell>
        <mxCell id="68AIYWXxE1RkeAf_uZzY-155" style="edgeStyle=orthogonalEdgeStyle;rounded=0;orthogonalLoop=1;jettySize=auto;html=1;entryX=0.5;entryY=0;entryDx=0;entryDy=0;" edge="1" parent="WIyWlLk6GJQsqaUBKTNV-1" source="68AIYWXxE1RkeAf_uZzY-147" target="68AIYWXxE1RkeAf_uZzY-148">
          <mxGeometry relative="1" as="geometry" />
        </mxCell>
        <mxCell id="68AIYWXxE1RkeAf_uZzY-147" value="Team" style="rhombus;whiteSpace=wrap;html=1;" vertex="1" parent="WIyWlLk6GJQsqaUBKTNV-1">
          <mxGeometry x="351.75" y="2038" width="135" height="80" as="geometry" />
        </mxCell>
        <mxCell id="68AIYWXxE1RkeAf_uZzY-200" style="edgeStyle=orthogonalEdgeStyle;rounded=0;orthogonalLoop=1;jettySize=auto;html=1;entryX=0.5;entryY=0;entryDx=0;entryDy=0;" edge="1" parent="WIyWlLk6GJQsqaUBKTNV-1" source="68AIYWXxE1RkeAf_uZzY-148" target="68AIYWXxE1RkeAf_uZzY-199">
          <mxGeometry relative="1" as="geometry" />
        </mxCell>
        <mxCell id="68AIYWXxE1RkeAf_uZzY-148" value="No" style="text;html=1;strokeColor=none;fillColor=none;align=center;verticalAlign=middle;whiteSpace=wrap;rounded=0;" vertex="1" parent="WIyWlLk6GJQsqaUBKTNV-1">
          <mxGeometry x="389.25" y="2158" width="60" height="30" as="geometry" />
        </mxCell>
        <mxCell id="68AIYWXxE1RkeAf_uZzY-205" style="edgeStyle=orthogonalEdgeStyle;rounded=0;orthogonalLoop=1;jettySize=auto;html=1;entryX=0;entryY=0.5;entryDx=0;entryDy=0;" edge="1" parent="WIyWlLk6GJQsqaUBKTNV-1" source="68AIYWXxE1RkeAf_uZzY-149" target="68AIYWXxE1RkeAf_uZzY-204">
          <mxGeometry relative="1" as="geometry" />
        </mxCell>
        <mxCell id="68AIYWXxE1RkeAf_uZzY-149" value="Yes" style="text;html=1;strokeColor=none;fillColor=none;align=center;verticalAlign=middle;whiteSpace=wrap;rounded=0;" vertex="1" parent="WIyWlLk6GJQsqaUBKTNV-1">
          <mxGeometry x="662.75" y="2063" width="60" height="30" as="geometry" />
        </mxCell>
        <mxCell id="68AIYWXxE1RkeAf_uZzY-153" style="edgeStyle=orthogonalEdgeStyle;rounded=0;orthogonalLoop=1;jettySize=auto;html=1;entryX=1;entryY=0.5;entryDx=0;entryDy=0;exitX=1;exitY=0.5;exitDx=0;exitDy=0;" edge="1" parent="WIyWlLk6GJQsqaUBKTNV-1" source="68AIYWXxE1RkeAf_uZzY-203" target="68AIYWXxE1RkeAf_uZzY-2">
          <mxGeometry relative="1" as="geometry">
            <mxPoint x="570" y="198.95" as="targetPoint" />
            <mxPoint x="1320" y="2030" as="sourcePoint" />
            <Array as="points">
              <mxPoint x="1273" y="2080" />
              <mxPoint x="1575" y="2080" />
              <mxPoint x="1575" y="190" />
            </Array>
          </mxGeometry>
        </mxCell>
        <mxCell id="68AIYWXxE1RkeAf_uZzY-161" value="Transformative Multiplier = 0.25" style="rounded=0;whiteSpace=wrap;html=1;" vertex="1" parent="WIyWlLk6GJQsqaUBKTNV-1">
          <mxGeometry x="-810" y="1220" width="120" height="60" as="geometry" />
        </mxCell>
        <mxCell id="68AIYWXxE1RkeAf_uZzY-162" value="Transformative Multiplier = 0.5" style="rounded=0;whiteSpace=wrap;html=1;" vertex="1" parent="WIyWlLk6GJQsqaUBKTNV-1">
          <mxGeometry x="-680" y="1220" width="120" height="60" as="geometry" />
        </mxCell>
        <mxCell id="68AIYWXxE1RkeAf_uZzY-163" value="Transformative Multiplier = 0.6" style="rounded=0;whiteSpace=wrap;html=1;" vertex="1" parent="WIyWlLk6GJQsqaUBKTNV-1">
          <mxGeometry x="-550" y="1220" width="120" height="60" as="geometry" />
        </mxCell>
        <mxCell id="68AIYWXxE1RkeAf_uZzY-165" value="Transformative Multiplier = 1.2" style="rounded=0;whiteSpace=wrap;html=1;" vertex="1" parent="WIyWlLk6GJQsqaUBKTNV-1">
          <mxGeometry x="-416" y="1220" width="120" height="60" as="geometry" />
        </mxCell>
        <mxCell id="68AIYWXxE1RkeAf_uZzY-166" value="Transformative Multiplier = 1.5" style="rounded=0;whiteSpace=wrap;html=1;" vertex="1" parent="WIyWlLk6GJQsqaUBKTNV-1">
          <mxGeometry x="-280" y="1220" width="120" height="60" as="geometry" />
        </mxCell>
        <mxCell id="68AIYWXxE1RkeAf_uZzY-167" value="Transformative Multiplier = 2" style="rounded=0;whiteSpace=wrap;html=1;" vertex="1" parent="WIyWlLk6GJQsqaUBKTNV-1">
          <mxGeometry x="-150" y="1220" width="120" height="60" as="geometry" />
        </mxCell>
        <mxCell id="68AIYWXxE1RkeAf_uZzY-168" value="Transformative Multiplier = 3" style="rounded=0;whiteSpace=wrap;html=1;" vertex="1" parent="WIyWlLk6GJQsqaUBKTNV-1">
          <mxGeometry x="-5" y="1220" width="120" height="60" as="geometry" />
        </mxCell>
        <mxCell id="68AIYWXxE1RkeAf_uZzY-213" style="edgeStyle=orthogonalEdgeStyle;rounded=0;orthogonalLoop=1;jettySize=auto;html=1;entryX=0.5;entryY=0;entryDx=0;entryDy=0;" edge="1" parent="WIyWlLk6GJQsqaUBKTNV-1" source="68AIYWXxE1RkeAf_uZzY-170" target="68AIYWXxE1RkeAf_uZzY-211">
          <mxGeometry relative="1" as="geometry" />
        </mxCell>
        <mxCell id="68AIYWXxE1RkeAf_uZzY-170" value="&#xa;&lt;p data-pm-slice=&quot;1 1 [&amp;quot;tiptapChildEditor&amp;quot;,{&amp;quot;id&amp;quot;:&amp;quot;2c45f719-b87e-4908-99bd-f6c6f1ec4c66&amp;quot;,&amp;quot;shapeId&amp;quot;:&amp;quot;fdUhFcARWMb&amp;quot;,&amp;quot;textId&amp;quot;:&amp;quot;identifier&amp;quot;}]&quot; dir=&quot;ltr&quot; style=&quot;text-align: center&quot;&gt;&lt;span style=&quot;color: rgb(26, 26, 26); font-size: 10pt; font-family: noto_regular&quot;&gt;Transformative damage = Transformative multiplier x Charater Level x (1 + %BonoME) x Resistance multiplier&lt;/span&gt;&lt;/p&gt;&#xa;&#xa;" style="rounded=0;whiteSpace=wrap;html=1;" vertex="1" parent="WIyWlLk6GJQsqaUBKTNV-1">
          <mxGeometry x="-661" y="1520" width="610" height="60" as="geometry" />
        </mxCell>
        <mxCell id="68AIYWXxE1RkeAf_uZzY-172" style="edgeStyle=orthogonalEdgeStyle;rounded=0;orthogonalLoop=1;jettySize=auto;html=1;" edge="1" parent="WIyWlLk6GJQsqaUBKTNV-1" source="68AIYWXxE1RkeAf_uZzY-171" target="68AIYWXxE1RkeAf_uZzY-170">
          <mxGeometry relative="1" as="geometry" />
        </mxCell>
        <mxCell id="68AIYWXxE1RkeAf_uZzY-171" value="" style="ellipse;whiteSpace=wrap;html=1;aspect=fixed;" vertex="1" parent="WIyWlLk6GJQsqaUBKTNV-1">
          <mxGeometry x="-396" y="1380" width="80" height="80" as="geometry" />
        </mxCell>
        <mxCell id="68AIYWXxE1RkeAf_uZzY-201" style="edgeStyle=orthogonalEdgeStyle;rounded=0;orthogonalLoop=1;jettySize=auto;html=1;entryX=0.5;entryY=0;entryDx=0;entryDy=0;" edge="1" parent="WIyWlLk6GJQsqaUBKTNV-1" source="68AIYWXxE1RkeAf_uZzY-174" target="68AIYWXxE1RkeAf_uZzY-147">
          <mxGeometry relative="1" as="geometry" />
        </mxCell>
        <mxCell id="68AIYWXxE1RkeAf_uZzY-174" value="" style="ellipse;whiteSpace=wrap;html=1;aspect=fixed;" vertex="1" parent="WIyWlLk6GJQsqaUBKTNV-1">
          <mxGeometry x="378.75" y="1917" width="80" height="80" as="geometry" />
        </mxCell>
        <mxCell id="68AIYWXxE1RkeAf_uZzY-178" style="edgeStyle=orthogonalEdgeStyle;rounded=0;orthogonalLoop=1;jettySize=auto;html=1;entryX=0;entryY=0.5;entryDx=0;entryDy=0;" edge="1" parent="WIyWlLk6GJQsqaUBKTNV-1" source="68AIYWXxE1RkeAf_uZzY-175" target="68AIYWXxE1RkeAf_uZzY-177">
          <mxGeometry relative="1" as="geometry" />
        </mxCell>
        <mxCell id="68AIYWXxE1RkeAf_uZzY-175" value="Amplification reaction multiplier = 1.5" style="rounded=0;whiteSpace=wrap;html=1;" vertex="1" parent="WIyWlLk6GJQsqaUBKTNV-1">
          <mxGeometry x="290" y="1380" width="120" height="60" as="geometry" />
        </mxCell>
        <mxCell id="68AIYWXxE1RkeAf_uZzY-179" style="edgeStyle=orthogonalEdgeStyle;rounded=0;orthogonalLoop=1;jettySize=auto;html=1;entryX=1;entryY=0.5;entryDx=0;entryDy=0;" edge="1" parent="WIyWlLk6GJQsqaUBKTNV-1" source="68AIYWXxE1RkeAf_uZzY-176" target="68AIYWXxE1RkeAf_uZzY-177">
          <mxGeometry relative="1" as="geometry" />
        </mxCell>
        <mxCell id="68AIYWXxE1RkeAf_uZzY-176" value="Amplification reaction multiplier = 2" style="rounded=0;whiteSpace=wrap;html=1;" vertex="1" parent="WIyWlLk6GJQsqaUBKTNV-1">
          <mxGeometry x="422.5" y="1380" width="120" height="60" as="geometry" />
        </mxCell>
        <mxCell id="68AIYWXxE1RkeAf_uZzY-181" style="edgeStyle=orthogonalEdgeStyle;rounded=0;orthogonalLoop=1;jettySize=auto;html=1;" edge="1" parent="WIyWlLk6GJQsqaUBKTNV-1" source="68AIYWXxE1RkeAf_uZzY-177" target="68AIYWXxE1RkeAf_uZzY-132">
          <mxGeometry relative="1" as="geometry" />
        </mxCell>
        <mxCell id="68AIYWXxE1RkeAf_uZzY-177" value="" style="ellipse;whiteSpace=wrap;html=1;aspect=fixed;" vertex="1" parent="WIyWlLk6GJQsqaUBKTNV-1">
          <mxGeometry x="377.5" y="1470" width="80" height="80" as="geometry" />
        </mxCell>
        <mxCell id="68AIYWXxE1RkeAf_uZzY-191" style="edgeStyle=orthogonalEdgeStyle;rounded=0;orthogonalLoop=1;jettySize=auto;html=1;entryX=0;entryY=0.5;entryDx=0;entryDy=0;" edge="1" parent="WIyWlLk6GJQsqaUBKTNV-1" source="68AIYWXxE1RkeAf_uZzY-184" target="68AIYWXxE1RkeAf_uZzY-189">
          <mxGeometry relative="1" as="geometry" />
        </mxCell>
        <mxCell id="68AIYWXxE1RkeAf_uZzY-184" value="Additive Multiplier = 1.15" style="rounded=0;whiteSpace=wrap;html=1;" vertex="1" parent="WIyWlLk6GJQsqaUBKTNV-1">
          <mxGeometry x="996" y="1210" width="120" height="60" as="geometry" />
        </mxCell>
        <mxCell id="68AIYWXxE1RkeAf_uZzY-219" style="edgeStyle=orthogonalEdgeStyle;rounded=0;orthogonalLoop=1;jettySize=auto;html=1;entryX=0.5;entryY=0;entryDx=0;entryDy=0;" edge="1" parent="WIyWlLk6GJQsqaUBKTNV-1" source="68AIYWXxE1RkeAf_uZzY-185" target="68AIYWXxE1RkeAf_uZzY-218">
          <mxGeometry relative="1" as="geometry" />
        </mxCell>
        <mxCell id="68AIYWXxE1RkeAf_uZzY-185" value="Additive Damage = Additive Multiplier * Character Level * (1 + %BonoME) * Resistance Multiplicator" style="rounded=0;whiteSpace=wrap;html=1;" vertex="1" parent="WIyWlLk6GJQsqaUBKTNV-1">
          <mxGeometry x="868.5" y="1390" width="551" height="60" as="geometry" />
        </mxCell>
        <mxCell id="68AIYWXxE1RkeAf_uZzY-192" style="edgeStyle=orthogonalEdgeStyle;rounded=0;orthogonalLoop=1;jettySize=auto;html=1;entryX=1;entryY=0.5;entryDx=0;entryDy=0;" edge="1" parent="WIyWlLk6GJQsqaUBKTNV-1" source="68AIYWXxE1RkeAf_uZzY-186" target="68AIYWXxE1RkeAf_uZzY-189">
          <mxGeometry relative="1" as="geometry" />
        </mxCell>
        <mxCell id="68AIYWXxE1RkeAf_uZzY-186" value="Additive Multiplier = 1.25" style="rounded=0;whiteSpace=wrap;html=1;" vertex="1" parent="WIyWlLk6GJQsqaUBKTNV-1">
          <mxGeometry x="1175" y="1210" width="120" height="60" as="geometry" />
        </mxCell>
        <mxCell id="68AIYWXxE1RkeAf_uZzY-193" style="edgeStyle=orthogonalEdgeStyle;rounded=0;orthogonalLoop=1;jettySize=auto;html=1;entryX=0.5;entryY=0;entryDx=0;entryDy=0;" edge="1" parent="WIyWlLk6GJQsqaUBKTNV-1" source="68AIYWXxE1RkeAf_uZzY-189" target="68AIYWXxE1RkeAf_uZzY-185">
          <mxGeometry relative="1" as="geometry" />
        </mxCell>
        <mxCell id="68AIYWXxE1RkeAf_uZzY-189" value="" style="ellipse;whiteSpace=wrap;html=1;aspect=fixed;" vertex="1" parent="WIyWlLk6GJQsqaUBKTNV-1">
          <mxGeometry x="1104" y="1280" width="80" height="80" as="geometry" />
        </mxCell>
        <mxCell id="68AIYWXxE1RkeAf_uZzY-222" style="edgeStyle=orthogonalEdgeStyle;rounded=0;orthogonalLoop=1;jettySize=auto;html=1;entryX=0.5;entryY=0;entryDx=0;entryDy=0;" edge="1" parent="WIyWlLk6GJQsqaUBKTNV-1" source="68AIYWXxE1RkeAf_uZzY-199" target="68AIYWXxE1RkeAf_uZzY-221">
          <mxGeometry relative="1" as="geometry" />
        </mxCell>
        <mxCell id="68AIYWXxE1RkeAf_uZzY-199" value="Output:&lt;br&gt;CharacterTotalDamage(1)" style="shape=parallelogram;perimeter=parallelogramPerimeter;whiteSpace=wrap;html=1;fixedSize=1;" vertex="1" parent="WIyWlLk6GJQsqaUBKTNV-1">
          <mxGeometry x="318.5" y="2258" width="202.5" height="60" as="geometry" />
        </mxCell>
        <mxCell id="68AIYWXxE1RkeAf_uZzY-208" style="edgeStyle=orthogonalEdgeStyle;rounded=0;orthogonalLoop=1;jettySize=auto;html=1;entryX=0.5;entryY=0;entryDx=0;entryDy=0;" edge="1" parent="WIyWlLk6GJQsqaUBKTNV-1" source="68AIYWXxE1RkeAf_uZzY-203" target="68AIYWXxE1RkeAf_uZzY-207">
          <mxGeometry relative="1" as="geometry" />
        </mxCell>
        <mxCell id="68AIYWXxE1RkeAf_uZzY-203" value="Repeat until Count=4" style="rounded=0;whiteSpace=wrap;html=1;" vertex="1" parent="WIyWlLk6GJQsqaUBKTNV-1">
          <mxGeometry x="1092.75" y="2048" width="180" height="60" as="geometry" />
        </mxCell>
        <mxCell id="68AIYWXxE1RkeAf_uZzY-206" style="edgeStyle=orthogonalEdgeStyle;rounded=0;orthogonalLoop=1;jettySize=auto;html=1;entryX=0;entryY=0.5;entryDx=0;entryDy=0;" edge="1" parent="WIyWlLk6GJQsqaUBKTNV-1" source="68AIYWXxE1RkeAf_uZzY-204" target="68AIYWXxE1RkeAf_uZzY-203">
          <mxGeometry relative="1" as="geometry" />
        </mxCell>
        <mxCell id="68AIYWXxE1RkeAf_uZzY-204" value="Count+=1" style="rounded=0;whiteSpace=wrap;html=1;" vertex="1" parent="WIyWlLk6GJQsqaUBKTNV-1">
          <mxGeometry x="789.25" y="2048" width="120" height="60" as="geometry" />
        </mxCell>
        <mxCell id="68AIYWXxE1RkeAf_uZzY-209" style="edgeStyle=orthogonalEdgeStyle;rounded=0;orthogonalLoop=1;jettySize=auto;html=1;entryX=1;entryY=0.5;entryDx=0;entryDy=0;" edge="1" parent="WIyWlLk6GJQsqaUBKTNV-1" source="68AIYWXxE1RkeAf_uZzY-207" target="68AIYWXxE1RkeAf_uZzY-210">
          <mxGeometry relative="1" as="geometry">
            <mxPoint x="892.75" y="2288" as="targetPoint" />
            <Array as="points">
              <mxPoint x="1183" y="2278" />
            </Array>
          </mxGeometry>
        </mxCell>
        <mxCell id="68AIYWXxE1RkeAf_uZzY-207" value="Count = 4" style="text;html=1;strokeColor=none;fillColor=none;align=center;verticalAlign=middle;whiteSpace=wrap;rounded=0;" vertex="1" parent="WIyWlLk6GJQsqaUBKTNV-1">
          <mxGeometry x="1132.75" y="2168" width="100" height="30" as="geometry" />
        </mxCell>
        <mxCell id="68AIYWXxE1RkeAf_uZzY-223" style="edgeStyle=orthogonalEdgeStyle;rounded=0;orthogonalLoop=1;jettySize=auto;html=1;entryX=1;entryY=0.5;entryDx=0;entryDy=0;" edge="1" parent="WIyWlLk6GJQsqaUBKTNV-1" source="68AIYWXxE1RkeAf_uZzY-210" target="68AIYWXxE1RkeAf_uZzY-221">
          <mxGeometry relative="1" as="geometry">
            <Array as="points">
              <mxPoint x="740" y="2450" />
            </Array>
          </mxGeometry>
        </mxCell>
        <mxCell id="68AIYWXxE1RkeAf_uZzY-210" value="Output:&lt;br&gt;CharacterTotalDamage(1)&lt;br&gt;CharacterTotalDamage(2)&lt;br&gt;CharacterTotalDamage(3)&lt;br&gt;CharacterTotalDamage(4)" style="shape=parallelogram;perimeter=parallelogramPerimeter;whiteSpace=wrap;html=1;fixedSize=1;" vertex="1" parent="WIyWlLk6GJQsqaUBKTNV-1">
          <mxGeometry x="640" y="2238" width="202.5" height="80" as="geometry" />
        </mxCell>
        <mxCell id="68AIYWXxE1RkeAf_uZzY-217" style="edgeStyle=orthogonalEdgeStyle;rounded=0;orthogonalLoop=1;jettySize=auto;html=1;entryX=0;entryY=0.5;entryDx=0;entryDy=0;" edge="1" parent="WIyWlLk6GJQsqaUBKTNV-1" source="68AIYWXxE1RkeAf_uZzY-211" target="68AIYWXxE1RkeAf_uZzY-174">
          <mxGeometry relative="1" as="geometry">
            <Array as="points">
              <mxPoint x="-356" y="1957" />
            </Array>
          </mxGeometry>
        </mxCell>
        <mxCell id="68AIYWXxE1RkeAf_uZzY-211" value="CharacterTotalDamage(n) = Transformative damage" style="rounded=0;whiteSpace=wrap;html=1;" vertex="1" parent="WIyWlLk6GJQsqaUBKTNV-1">
          <mxGeometry x="-519" y="1640" width="326" height="60" as="geometry" />
        </mxCell>
        <mxCell id="68AIYWXxE1RkeAf_uZzY-216" style="edgeStyle=orthogonalEdgeStyle;rounded=0;orthogonalLoop=1;jettySize=auto;html=1;entryX=0.5;entryY=0;entryDx=0;entryDy=0;" edge="1" parent="WIyWlLk6GJQsqaUBKTNV-1" source="68AIYWXxE1RkeAf_uZzY-214" target="68AIYWXxE1RkeAf_uZzY-174">
          <mxGeometry relative="1" as="geometry" />
        </mxCell>
        <mxCell id="68AIYWXxE1RkeAf_uZzY-214" value="CharacterTotalDamage(n) = Amplification damage" style="rounded=0;whiteSpace=wrap;html=1;" vertex="1" parent="WIyWlLk6GJQsqaUBKTNV-1">
          <mxGeometry x="255" y="1800" width="326" height="60" as="geometry" />
        </mxCell>
        <mxCell id="68AIYWXxE1RkeAf_uZzY-220" style="edgeStyle=orthogonalEdgeStyle;rounded=0;orthogonalLoop=1;jettySize=auto;html=1;entryX=1;entryY=0.5;entryDx=0;entryDy=0;" edge="1" parent="WIyWlLk6GJQsqaUBKTNV-1" source="68AIYWXxE1RkeAf_uZzY-218" target="68AIYWXxE1RkeAf_uZzY-174">
          <mxGeometry relative="1" as="geometry">
            <Array as="points">
              <mxPoint x="1144" y="1957" />
            </Array>
          </mxGeometry>
        </mxCell>
        <mxCell id="68AIYWXxE1RkeAf_uZzY-218" value="CharacterTotalDamage(n) = Additive damage" style="rounded=0;whiteSpace=wrap;html=1;" vertex="1" parent="WIyWlLk6GJQsqaUBKTNV-1">
          <mxGeometry x="981" y="1520" width="326" height="60" as="geometry" />
        </mxCell>
        <mxCell id="68AIYWXxE1RkeAf_uZzY-221" value="End" style="rounded=1;whiteSpace=wrap;html=1;" vertex="1" parent="WIyWlLk6GJQsqaUBKTNV-1">
          <mxGeometry x="360" y="2420" width="120" height="60" as="geometry" />
        </mxCell>
      </root>
    </mxGraphModel>
  </diagram>
</mxfile>
